<svg fill="white" width="20" height="20" viewBox="0 0 20 20"  xmlns="http://www.w3.org/2000/svg">
<path fill-rule="evenodd" clip-rule="evenodd" d="M1.45 10C1.45 5.27855 5.27765 1.45 10 1.45C14.7214 1.45 18.55 5.2786 18.55 10C18.55 14.7214 14.7214 18.55 10 18.55C5.27765 18.55 1.45 14.7214 1.45 10ZM10 0.05C4.50435 0.05 0.05 4.50545 0.05 10C0.05 15.4945 4.50435 19.95 10 19.95C15.4946 19.95 19.95 15.4946 19.95 10C19.95 4.5054 15.4946 0.05 10 0.05ZM9.99878 6.395C9.33778 6.395 8.80078 5.858 8.80078 5.198C8.80078 4.538 9.33778 4 9.99878 4C10.6598 4 11.1968 4.538 11.1968 5.198C11.1968 5.858 10.6598 6.395 9.99878 6.395ZM8.89844 8.6C8.89844 7.99249 9.39092 7.5 9.99844 7.5C10.606 7.5 11.0984 7.99249 11.0984 8.6V14.4C11.0984 15.0075 10.606 15.5 9.99844 15.5C9.39092 15.5 8.89844 15.0075 8.89844 14.4V8.6Z" fill="black"/>
</svg>
